<?xml version="1.0" encoding="utf-8"?>
<!-- Generator: Adobe Illustrator 25.2.3, SVG Export Plug-In . SVG Version: 6.00 Build 0)  -->
<svg version="1.1" id="Layer_1" xmlns="http://www.w3.org/2000/svg" xmlns:xlink="http://www.w3.org/1999/xlink" x="0px" y="0px"
	 viewBox="0 0 32 32" style="enable-background:new 0 0 32 32;" xml:space="preserve">
<style type="text/css">
	.st0{fill:#A000A0;}
	.st1{fill:#780078;}
	.st2{fill: hsla(180, 100%, 20%, 1)}
	.st3{fill:#C800C8;}
</style>
<g>
	
		<rect x="5.82" y="15.79" transform="matrix(0.7071 -0.7071 0.7071 0.7071 -10.9208 12.2764)" class="st0" width="7.07" height="7.07"/>
</g>
<g>
	
		<rect x="12.46" y="22.43" transform="matrix(0.7071 -0.7071 0.7071 0.7071 -13.6718 18.9179)" class="st1" width="7.07" height="7.07"/>
</g>
<g>
	<rect x="5.82" y="2.5" transform="matrix(0.7071 -0.7071 0.7071 0.7071 -1.5283 8.3859)" class="st2" width="7.07" height="7.07"/>
</g>
<g>
	
		<rect x="12.46" y="9.14" transform="matrix(0.7071 -0.7071 0.7071 0.7071 -4.2793 15.0274)" class="st3" width="7.07" height="7.07"/>
</g>
<g>
	
		<rect x="19.11" y="15.79" transform="matrix(0.7071 -0.7071 0.7071 0.7071 -7.0303 21.6689)" class="st0" width="7.07" height="7.07"/>
</g>
<g>
	
		<rect x="19.11" y="2.5" transform="matrix(0.7071 -0.7071 0.7071 0.7071 2.3622 17.7784)" class="st2" width="7.07" height="7.07"/>
</g>
</svg>
